<?xml version="1.0" encoding="UTF-8"?>
<svg width="500" height="150" viewBox="0 0 500 150" xmlns="http://www.w3.org/2000/svg">
  <title>Commonly Logo</title>
  <g fill="#222222">
    <path d="M65,30c-16.57,0-30,13.43-30,30s13.43,30,30,30c5.36,0,10.39-1.42,14.75-3.88C74.39,96.58,69.36,98,64,98c-16.57,0-30-13.43-30-30s13.43-30,30-30c5.36,0,10.39,1.42,14.75,3.88C75.39,33.42,70.36,32,65,32z"/>
    <path d="M115,30h30v60h-30z"/>
    <path d="M165,30v60h30v-20h10v-20h-10v-20z"/>
    <path d="M215,30v60h30v-20h10v-20h-10v-20z"/>
    <path d="M265,30v60h30v-20h10v-20h-10v-20z"/>
    <path d="M315,30c-16.57,0-30,13.43-30,30s13.43,30,30,30c5.36,0,10.39-1.42,14.75-3.88C324.39,96.58,319.36,98,314,98c-16.57,0-30-13.43-30-30s13.43-30,30-30c5.36,0,10.39,1.42,14.75,3.88C325.39,33.42,320.36,32,315,32z"/>
    <path d="M365,30h30v60h-30z"/>
    <path d="M415,30v60h30V30z"/>
    <path d="M445,30l30,60h-30z"/>
    <circle cx="130" cy="15" r="10"/>
    <circle cx="855" cy="330" r="10" transform="translate(-460 -180)"/>
  </g>
</svg>
