<svg xmlns="http://www.w3.org/2000/svg" viewBox="0 0 500 150">
  <path d="M65.8,134.4c-17.6,0-32.4-13.6-32.4-37.6c0-24,14.8-37.6,32.4-37.6c17.2,0,32,13.6,32,37.6C97.8,120.8,83,134.4,65.8,134.4z M65.8,79.2c-7.6,0-10.8,10-10.8,17.6c0,7.6,3.2,17.6,10.8,17.6c7.2,0,10.4-10,10.4-17.6C76.2,89.2,73,79.2,65.8,79.2z" fill="#222222"/>
  <path d="M130.6,133.2H111V61.2h19.6V133.2z M120.6,44.8c-6,0-10.8-4.8-10.8-10.4s4.8-10.4,10.8-10.4c6,0,10.8,4.8,10.8,10.4S126.6,44.8,120.6,44.8z" fill="#222222"/>
  <path d="M196.2,133.2h-19.6v-40.4c0-8-0.8-11.6-7.2-11.6c-6,0-10,4.4-10,14v38h-19.6V61.2h18.8v7.6c4-5.2,10.4-9.6,18.8-9.6c14.4,0,18.8,8.4,18.8,21.2V133.2z" fill="#222222"/>
  <path d="M261.8,133.2h-19.6v-40.4c0-8-0.8-11.6-7.2-11.6c-6,0-10,4.4-10,14v38h-19.6V61.2h18.8v7.6c4-5.2,10.4-9.6,18.8-9.6c14.4,0,18.8,8.4,18.8,21.2V133.2z" fill="#222222"/>
  <path d="M327.4,133.2h-19.6v-40.4c0-8-0.8-11.6-7.2-11.6c-6,0-10,4.4-10,14v38H271V61.2h18.8v7.6c4-5.2,10.4-9.6,18.8-9.6c14.4,0,18.8,8.4,18.8,21.2V133.2z" fill="#222222"/>
  <path d="M389.4,133.2h-19.6v-7.6c-4,5.2-10.4,9.6-18.8,9.6c-14.4,0-18.8-8.4-18.8-21.2V61.2h19.6v40.4c0,8,0.8,11.6,7.2,11.6c6,0,10-4.4,10-14v-38h19.6V133.2z" fill="#222222"/>
  <path d="M455,79.6V133.2h-18.8v-7.6c-4,5.2-10.4,9.6-18.8,9.6c-14.4,0-18.8-8.4-18.8-21.2V61.2h19.6v40.4c0,8,0.8,11.6,7.2,11.6c6,0,10-4.4,10-14v-38H455z" fill="#222222"/>
  <path d="M500,37.2c-6,0-10.8-4.8-10.8-10.4s4.8-10.4,10.8-10.4c6,0,10.8,4.8,10.8,10.4S506,37.2,500,37.2z M509.8,61.2v72H490.2v-72H509.8z" fill="#222222"/>
</svg>
